<svg xmlns="http://www.w3.org/2000/svg" viewBox="0 0 83.67 83.68">
  <title>Asset 1</title>
  <g id="Layer_2" data-name="Layer 2">
    <g id="Space_Icons" data-name="Space Icons">
      <path d="M5.07,78.6a3.11,3.11,0,0,1-.77-1.27,6.49,6.49,0,0,1-.3-2.1,21.73,21.73,0,0,1,1.88-7.75A81.06,81.06,0,0,1,15.51,51a161.44,161.44,0,0,1,16.43-19,149.82,149.82,0,0,1,25-20.48A66.53,66.53,0,0,1,67.48,5.88,21.73,21.73,0,0,1,75.23,4a6.49,6.49,0,0,1,2.1.3,3.11,3.11,0,0,1,1.27.77,2,2,0,0,0,2.83-2.83A7.2,7.2,0,0,0,78.62.51,10.5,10.5,0,0,0,75.23,0,25.65,25.65,0,0,0,66,2.17a85.15,85.15,0,0,0-17.35,10.1A167.4,167.4,0,0,0,29.11,29.11a154.1,154.1,0,0,0-21,25.68A71.42,71.42,0,0,0,2.17,66,25.65,25.65,0,0,0,0,75.23a10.5,10.5,0,0,0,.51,3.39,7.2,7.2,0,0,0,1.73,2.81A2,2,0,0,0,5.07,78.6" fill="#2d3666"/>
      <path d="M41.84,6A35.84,35.84,0,1,1,6,41.84,35.83,35.83,0,0,1,41.84,6" fill="#78d5dd"/>
      <path d="M42.69,6.86a35.79,35.79,0,0,0-29.08,14.9c1.8.19,4.83.79,6.17,2.62a4.32,4.32,0,0,1,.87.89,3.69,3.69,0,0,1,1.46,2.15,10.55,10.55,0,0,0,.3,1.06h0a7.2,7.2,0,0,0,.53,1.21l.07,0a35.78,35.78,0,0,1,24.88-13.9,9,9,0,0,1-1-4.3c0-1.41.39-2.87-.08-4.2l0-.23a35.58,35.58,0,0,0-4.15-.24" fill="#48bbc7"/>
      <path d="M29.93,75.65a35.78,35.78,0,0,0,11.9,2h0a35.82,35.82,0,0,1-11.9-2m-14.84-10h0M77.67,41.84A35.85,35.85,0,0,1,52.46,76.07,35.83,35.83,0,0,0,77.67,41.84h0m0-.1v0m0-.08v0" fill="#9ae0e6"/>
      <path d="M67.84,20.76A35.86,35.86,0,0,1,25.28,70.6a23.21,23.21,0,0,0,4.33,4.93h0l.32.12A35.84,35.84,0,0,0,77.67,41.84v-.18a35.78,35.78,0,0,0-5.42-18.78c-.32-.43-.65-.86-1-1.28l-.06,0a17.73,17.73,0,0,0-3.36-.8" fill="#a8eff3"/>
      <path d="M8.41,83.68a8.34,8.34,0,0,1-6.17-2.25A2,2,0,1,1,5.07,78.6C6.68,80.22,10.59,80,15.79,78a2,2,0,1,1,1.46,3.73A24.91,24.91,0,0,1,8.41,83.68Z" fill="#2d3666"/>
      <path d="M67,39.58a2,2,0,0,1-1.23-.42,2,2,0,0,1-.35-2.81C78.2,19.94,81.73,8.19,78.61,5.06a2,2,0,0,1,2.82-2.82c5.51,5.5.7,19.17-12.87,36.57A2,2,0,0,1,67,39.58Z" fill="#2d3666"/>
      <path d="M45.79,63.12a2,2,0,0,1-.55-3.92l18.12-5.26a2,2,0,0,1,2.48,1.37,2,2,0,0,1-1.37,2.47L46.35,63A2.1,2.1,0,0,1,45.79,63.12Z" fill="#2d3666"/>
      <path d="M45.8,63.12a2.07,2.07,0,0,1-.35,0,2,2,0,0,1-1.63-2.31L47,42.18a2,2,0,1,1,3.94.69L47.77,61.46A2,2,0,0,1,45.8,63.12Z" fill="#2d3666"/>
      <path d="M49.8,58.65a2,2,0,0,1-1.49-3.34L59,43.39a2,2,0,0,1,2.82-.16A2,2,0,0,1,62,46.06L51.29,58A2,2,0,0,1,49.8,58.65Z" fill="#2d3666"/>
      <circle cx="46.46" cy="60.37" r="8" transform="translate(-3.27 2.66) rotate(-3.17)" fill="#e8f3ff"/>
      <path d="M46.94,6.36A35.82,35.82,0,0,1,71.45,21.65c-3.9-1.41-7.29-1.13-10.45-.85-2.94.27-5.67.53-8.42-.58a9.35,9.35,0,0,1-5.69-8.69c0-1.41.39-2.87-.08-4.2l.13-1" fill="#ffdca1"/>
      <path d="M67.67,17a36.13,36.13,0,0,1,3.78,4.66h0l.09.13.17.12.81.57-.12-.19c-.1-.12-.19-.25-.28-.37-.34-.45-.69-.9-1.06-1.33l-.16-.19c-.36-.43-.74-.86-1.13-1.27L69.69,19c-.38-.42-.78-.82-1.19-1.21l-.12-.11,0,0c-.22-.24-.45-.48-.68-.71" fill="#ffe5b9"/>
      <path d="M71.24,21.58l0,0,.28.18-.09-.13-.21-.07" fill="#78bfa0"/>
      <path d="M71.2,21.56l.06,0,0,0,0,0" fill="#a8d6b0"/>
      <path d="M47.8,7.22l-.13,1c.47,1.33.11,2.79.08,4.2a8.51,8.51,0,0,0,.3,2.46l.71,0c.05.3.1.61.18.91.84-.06,1.69-.09,2.54-.09a36,36,0,0,1,5.11.36l.25,0,.7.11c1.05.18,2.08.4,3.1.67.51.14,1,.28,1.52.44l.89.29c.8.27,1.6.57,2.38.9l1.22.55c.37.17.73.34,1.09.53s.84.44,1.25.67c.16.08.31.17.46.26s.57.33.84.51.54.33.81.52l.1.06,0,0,.21.07h0A36.13,36.13,0,0,0,67.67,17l-.06,0-.12-.11c-.38-.37-.77-.73-1.16-1.07l-.25-.22c-.37-.32-.75-.63-1.13-.94-.56-.44-1.13-.87-1.73-1.29l-1.3-.87a35.77,35.77,0,0,0-5.24-2.75L56,9.42a32.36,32.36,0,0,0-3.86-1.29l-.83-.22-.71-.17-.86-.19-.14,0-.87-.16-.88-.14H47.8" fill="#ffc675"/>
      <path d="M29.55,31.84c3.23,1.65,4.66,5.41-1.55,14.25C21,56,19.67,66.84,29.61,75.53a35.85,35.85,0,0,1-17.4-53.86s7.28,0,8.15,4c1.25,5.69,5.06,4.06,9.19,6.17" fill="#ffdca1"/>
      <path d="M20.09,24.89a3.27,3.27,0,0,1,.27.78c.5,2.27,1.41,3.38,2.58,4a6.47,6.47,0,0,1-.53-1.21l-.32.39a7.86,7.86,0,0,1-.87-2.34,3.22,3.22,0,0,0-.57-1.26,5,5,0,0,0-.56-.38" fill="#78bfa0"/>
      <path d="M19.78,24.38a4.33,4.33,0,0,1,.31.51,5,5,0,0,1,.56.38,3.22,3.22,0,0,1,.57,1.26,7.86,7.86,0,0,0,.87,2.34l.32-.39a10.55,10.55,0,0,1-.3-1.06,3.69,3.69,0,0,0-1.46-2.15,4.32,4.32,0,0,0-.87-.89" fill="#48a890"/>
      <path d="M16.87,67.55l.08.08c.23.24.48.47.72.7l.17.19c.46.47.93.93,1.42,1.38a35.93,35.93,0,0,0,3.23,2.66h0c-.24-.33-.48-.67-.71-1a36.42,36.42,0,0,1-4.92-4" fill="#ffe5b9"/>
      <path d="M13.07,22.53l-.09.13-.6.91c-.24.38-.47.77-.7,1.17s-.43.76-.64,1.14c-.41.77-.79,1.56-1.15,2.36-.17.41-.35.81-.51,1.22a36,36,0,0,0-1.91,6.62c-.07.37-.14.74-.19,1.12s-.13.9-.18,1.35q-.16,1.35-.21,2.73v0q0,.69,0,1.38h0c0,.4,0,.81,0,1.21s0,.52,0,.77,0,.25,0,.37c0,.3,0,.59.07.88l0,.23c0,.46.09.91.16,1.36q0,.43.12.87c.07.47.16.93.25,1.39s.16.76.25,1.14c.2.87.44,1.73.71,2.58.07.23.14.45.22.67s.1.3.16.46.17.5.27.75l.39,1c.18.42.36.84.55,1.25s.35.74.53,1.11c.39.78.81,1.54,1.26,2.29.12.2.24.4.37.6s.33.53.5.8.39.58.6.87c.37.52.75,1,1.15,1.55.21.26.41.52.63.77.55.66,1.12,1.3,1.72,1.93a36.42,36.42,0,0,0,4.92,4v0l-.08-.12c-.44-.65-.85-1.31-1.25-2-.11-.18-.21-.37-.31-.56-.2-.34-.38-.69-.56-1s-.38-.76-.55-1.14c-.4-.85-.77-1.71-1.1-2.6-.14-.36-.27-.72-.39-1.09s-.17-.5-.24-.75-.21-.65-.3-1c-.25-.89-.47-1.79-.65-2.7-.09-.46-.18-.92-.25-1.39s-.14-.93-.2-1.4c-.1-.9-.18-1.81-.21-2.73,0-.52,0-1,0-1.56h0c0-.46,0-.93,0-1.39s0-.83.07-1.25v-.16c0-.45.08-.89.13-1.34s.09-.73.14-1.09a2.34,2.34,0,0,1,0-.26c.06-.4.13-.8.2-1.19,0-.11,0-.22.07-.33.07-.37.15-.75.24-1.12v0c.1-.41.2-.82.32-1.23s.17-.63.27-.95.13-.45.21-.68.17-.53.27-.79a5.89,5.89,0,0,1,.21-.59c.22-.59.45-1.17.7-1.75.1-.24.2-.48.32-.71l0,0q.44-1,.93-1.89c.19-.36.39-.71.59-1.06l0-.08c.21-.36.42-.71.64-1.06l.17-.28.58-.87c.36-.53.73-1.05,1.12-1.56l0-.07c-1.17-.64-2.08-1.75-2.58-4a3.27,3.27,0,0,0-.27-.78,4.33,4.33,0,0,0-.31-.51c-2.38-1.83-6.71-1.85-6.71-1.85" fill="#ffc675"/>
      <path d="M41.83,79.67a37.6,37.6,0,0,1-12.91-2.26A38.14,38.14,0,0,1,13.6,67,37.83,37.83,0,0,1,41.83,4a38.32,38.32,0,0,1,5.39.38A37.89,37.89,0,0,1,73.1,20.52c.24.35.48.73.72,1.1l.12.19A37.84,37.84,0,0,1,41.83,79.67ZM41.83,8A33.84,33.84,0,1,0,70.55,23.94l-.11-.18c-.21-.32-.41-.65-.63-1A33.89,33.89,0,0,0,46.66,8.34,33.49,33.49,0,0,0,41.83,8Z" fill="#2d3666"/>
      <path d="M71.45,23.65a2,2,0,0,1-.68-.12c-3.53-1.28-6.67-1-9.71-.72s-6.07.54-9.23-.74a11.3,11.3,0,0,1-6.94-10.59c0-.44,0-.89.09-1.33A5.55,5.55,0,0,0,44.92,8,2,2,0,0,1,48.7,6.66,8.79,8.79,0,0,1,49,10.49c0,.36-.06.73-.07,1.08a7.35,7.35,0,0,0,4.44,6.8c2.26.91,4.63.7,7.38.45,3.31-.3,7.06-.63,11.42.95a2,2,0,0,1-.68,3.88Z" fill="#2d3666"/>
      <path d="M29.61,77.53A2,2,0,0,1,28.29,77c-9.78-8.55-10.46-20-1.93-32.1,4-5.7,4.14-8.42,3.86-9.54a2.66,2.66,0,0,0-1.58-1.78,13.69,13.69,0,0,0-3.29-1.06c-2.05-.47-4.36-1-5.84-3.54a9.41,9.41,0,0,1-1.1-2.91C18,24.31,14,23.68,12.2,23.67a2,2,0,0,1,0-4h0c.91,0,8.92.19,10.09,5.57A6.28,6.28,0,0,0,22.94,27c.6,1,1.45,1.25,3.3,1.68a17.33,17.33,0,0,1,4.22,1.4,6.7,6.7,0,0,1,3.65,4.38c.79,3.2-.67,7.39-4.47,12.8-5.1,7.25-9,17.78,1.29,26.78a2,2,0,0,1-1.32,3.51Z" fill="#2d3666"/>
      <path d="M53.8,57.17A8,8,0,0,0,43.24,67.69,8,8,0,1,1,51.8,54.41,8.1,8.1,0,0,1,53.8,57.17Z" fill="#b8daf2"/>
      <path d="M46.46,70.37A10,10,0,1,1,53.91,67,10,10,0,0,1,46.46,70.37Zm0-16h-.34a6,6,0,1,0,.34,0Z" fill="#2d3666"/>
    </g>
  </g>
</svg>
